<svg xmlns="http://www.w3.org/2000/svg" xmlns:xlink="http://www.w3.org/1999/xlink" width="147.445" height="47" viewBox="0 0 147.445 47">
  <defs>
    <clipPath id="clip-path">
      <circle id="Ellipse_14" data-name="Ellipse 14" cx="22.5" cy="22.5" r="22.5" transform="translate(-0.024 0.346)" fill="#fff" stroke="#707070" stroke-width="1"/>
    </clipPath>
    <clipPath id="clip-path-2">
      <rect width="311.926" height="60.243" fill="none"/>
    </clipPath>
    <clipPath id="clip-path-3">
      <path id="Path_69" data-name="Path 69" d="M17.744-4.984,8.829-16.438H8.761V-4.984H3.066V-29.86H8.761v10.119h.1L17.439-29.86h7.254L14.354-18.405,25.3-4.984Zm22.271,0-5.187-9.873H32.863v9.873H27.168V-29.86h9.153a15.358,15.358,0,0,1,3.373.369,8.6,8.6,0,0,1,2.949,1.247,6.437,6.437,0,0,1,2.085,2.319,7.459,7.459,0,0,1,.78,3.584,6.773,6.773,0,0,1-1.322,4.251,7.194,7.194,0,0,1-3.661,2.459L46.8-4.984Zm-.237-17.251a2.561,2.561,0,0,0-.356-1.423,2.47,2.47,0,0,0-.915-.843,3.875,3.875,0,0,0-1.254-.4,8.931,8.931,0,0,0-1.339-.105H32.829v5.8h2.746a8.952,8.952,0,0,0,1.458-.123,4.528,4.528,0,0,0,1.356-.439,2.62,2.62,0,0,0,1-.914A2.782,2.782,0,0,0,39.778-22.235ZM65.914-4.984,64.05-9.868H54.762L53-4.984H46.694L56.762-29.86h5.627L72.355-4.984ZM59.473-23.219l-3.051,8.538h6.034Zm34.611,8.854a11.05,11.05,0,0,1-.729,4.093A8.916,8.916,0,0,1,91.27-7.109,9.559,9.559,0,0,1,88-5.054a11.748,11.748,0,0,1-4.254.738,11.711,11.711,0,0,1-4.271-.738,9.232,9.232,0,0,1-3.22-2.055,8.952,8.952,0,0,1-2.034-3.162,11.285,11.285,0,0,1-.712-4.093V-29.86H79.27v15a7.177,7.177,0,0,0,.254,1.932,5.036,5.036,0,0,0,.78,1.634,3.682,3.682,0,0,0,1.39,1.142,4.718,4.718,0,0,0,2.085.422,4.718,4.718,0,0,0,2.085-.422,3.828,3.828,0,0,0,1.407-1.142,4.614,4.614,0,0,0,.78-1.634,7.66,7.66,0,0,0,.237-1.932v-15h5.8Zm17.356-9.03a5.263,5.263,0,0,0-1.949-1.564,5.341,5.341,0,0,0-2.322-.58,6.676,6.676,0,0,0-1.17.105,2.953,2.953,0,0,0-1.068.4,2.681,2.681,0,0,0-.8.773,2.114,2.114,0,0,0-.322,1.212,2.011,2.011,0,0,0,.254,1.054,2.3,2.3,0,0,0,.746.738,6.549,6.549,0,0,0,1.17.58q.678.264,1.525.545,1.22.422,2.542.931a9.41,9.41,0,0,1,2.407,1.353,7.024,7.024,0,0,1,1.8,2.091,6.2,6.2,0,0,1,.712,3.109,8.373,8.373,0,0,1-.763,3.707,7.341,7.341,0,0,1-2.051,2.582A8.669,8.669,0,0,1,109.2-4.843a11.994,11.994,0,0,1-3.424.492,13.7,13.7,0,0,1-4.983-.931,10.524,10.524,0,0,1-4-2.653l3.8-4.005a7.059,7.059,0,0,0,2.322,1.88,6.126,6.126,0,0,0,2.864.755,5.57,5.57,0,0,0,1.254-.141A3.07,3.07,0,0,0,108.1-9.9a2.261,2.261,0,0,0,.729-.843,2.735,2.735,0,0,0,.271-1.265,2.054,2.054,0,0,0-.339-1.195,3.356,3.356,0,0,0-.966-.9,7.654,7.654,0,0,0-1.559-.738q-.932-.334-2.119-.72a19.825,19.825,0,0,1-2.254-.914A7.531,7.531,0,0,1,99.9-17.826a6.263,6.263,0,0,1-1.39-2,7,7,0,0,1-.525-2.864,7.248,7.248,0,0,1,.814-3.549,7.241,7.241,0,0,1,2.136-2.424,9.021,9.021,0,0,1,2.983-1.388,13.076,13.076,0,0,1,3.356-.439,12.068,12.068,0,0,1,4.153.773,10.621,10.621,0,0,1,3.712,2.284ZM118.8-4.984V-29.86h16.136v5.095H124.39v4.673h9.966v4.814H124.39v5.165h11.153v5.13Z" transform="translate(-3.066 30.492)" fill="#232c46"/>
    </clipPath>
    <clipPath id="clip-path-4">
      <rect width="182.165" height="49.431" fill="none"/>
    </clipPath>
  </defs>
  <g id="Group_139" data-name="Group 139" transform="translate(-104.885 -28.909)">
    <g id="Group_90" data-name="Group 90" transform="translate(105 29)">
      <g id="Group_89" data-name="Group 89" transform="translate(0 0)">
        <g id="Mask_Group_11" data-name="Mask Group 11" transform="translate(3.909 1.564)" clip-path="url(#clip-path)">
          <g id="Repeat_Grid_5" data-name="Repeat Grid 5" transform="translate(-87.995 -7.449)" clip-path="url(#clip-path-2)">
            <g transform="translate(-9210.5 404)">
              <line id="Line_5" data-name="Line 5" x2="233" transform="translate(9210.5 -403.5)" fill="none" stroke="#232c46" stroke-width="0.5"/>
            </g>
            <g transform="translate(-8977.5 404)">
              <line id="Line_5-2" data-name="Line 5" x2="233" transform="translate(9210.5 -403.5)" fill="none" stroke="#232c46" stroke-width="0.5"/>
            </g>
            <g transform="translate(-9210.5 405)">
              <line id="Line_5-3" data-name="Line 5" x2="233" transform="translate(9210.5 -403.5)" fill="none" stroke="#232c46" stroke-width="0.5"/>
            </g>
            <g transform="translate(-8977.5 405)">
              <line id="Line_5-4" data-name="Line 5" x2="233" transform="translate(9210.5 -403.5)" fill="none" stroke="#232c46" stroke-width="0.5"/>
            </g>
            <g transform="translate(-9210.5 406)">
              <line id="Line_5-5" data-name="Line 5" x2="233" transform="translate(9210.5 -403.5)" fill="none" stroke="#232c46" stroke-width="0.5"/>
            </g>
            <g transform="translate(-8977.5 406)">
              <line id="Line_5-6" data-name="Line 5" x2="233" transform="translate(9210.5 -403.5)" fill="none" stroke="#232c46" stroke-width="0.5"/>
            </g>
            <g transform="translate(-9210.5 407)">
              <line id="Line_5-7" data-name="Line 5" x2="233" transform="translate(9210.5 -403.5)" fill="none" stroke="#232c46" stroke-width="0.5"/>
            </g>
            <g transform="translate(-8977.5 407)">
              <line id="Line_5-8" data-name="Line 5" x2="233" transform="translate(9210.5 -403.5)" fill="none" stroke="#232c46" stroke-width="0.5"/>
            </g>
            <g transform="translate(-9210.5 408)">
              <line id="Line_5-9" data-name="Line 5" x2="233" transform="translate(9210.5 -403.5)" fill="none" stroke="#232c46" stroke-width="0.5"/>
            </g>
            <g transform="translate(-8977.5 408)">
              <line id="Line_5-10" data-name="Line 5" x2="233" transform="translate(9210.5 -403.5)" fill="none" stroke="#232c46" stroke-width="0.5"/>
            </g>
            <g transform="translate(-9210.5 409)">
              <line id="Line_5-11" data-name="Line 5" x2="233" transform="translate(9210.5 -403.5)" fill="none" stroke="#232c46" stroke-width="0.5"/>
            </g>
            <g transform="translate(-8977.5 409)">
              <line id="Line_5-12" data-name="Line 5" x2="233" transform="translate(9210.5 -403.5)" fill="none" stroke="#232c46" stroke-width="0.5"/>
            </g>
            <g transform="translate(-9210.5 410)">
              <line id="Line_5-13" data-name="Line 5" x2="233" transform="translate(9210.5 -403.5)" fill="none" stroke="#232c46" stroke-width="0.5"/>
            </g>
            <g transform="translate(-8977.5 410)">
              <line id="Line_5-14" data-name="Line 5" x2="233" transform="translate(9210.5 -403.5)" fill="none" stroke="#232c46" stroke-width="0.5"/>
            </g>
            <g transform="translate(-9210.5 411)">
              <line id="Line_5-15" data-name="Line 5" x2="233" transform="translate(9210.5 -403.5)" fill="none" stroke="#232c46" stroke-width="0.5"/>
            </g>
            <g transform="translate(-8977.5 411)">
              <line id="Line_5-16" data-name="Line 5" x2="233" transform="translate(9210.5 -403.5)" fill="none" stroke="#232c46" stroke-width="0.5"/>
            </g>
            <g transform="translate(-9210.5 412)">
              <line id="Line_5-17" data-name="Line 5" x2="233" transform="translate(9210.5 -403.5)" fill="none" stroke="#232c46" stroke-width="0.5"/>
            </g>
            <g transform="translate(-8977.5 412)">
              <line id="Line_5-18" data-name="Line 5" x2="233" transform="translate(9210.5 -403.5)" fill="none" stroke="#232c46" stroke-width="0.5"/>
            </g>
            <g transform="translate(-9210.5 413)">
              <line id="Line_5-19" data-name="Line 5" x2="233" transform="translate(9210.5 -403.5)" fill="none" stroke="#232c46" stroke-width="0.5"/>
            </g>
            <g transform="translate(-8977.5 413)">
              <line id="Line_5-20" data-name="Line 5" x2="233" transform="translate(9210.5 -403.5)" fill="none" stroke="#232c46" stroke-width="0.5"/>
            </g>
            <g transform="translate(-9210.5 414)">
              <line id="Line_5-21" data-name="Line 5" x2="233" transform="translate(9210.5 -403.5)" fill="none" stroke="#232c46" stroke-width="0.5"/>
            </g>
            <g transform="translate(-8977.5 414)">
              <line id="Line_5-22" data-name="Line 5" x2="233" transform="translate(9210.5 -403.5)" fill="none" stroke="#232c46" stroke-width="0.5"/>
            </g>
            <g transform="translate(-9210.5 415)">
              <line id="Line_5-23" data-name="Line 5" x2="233" transform="translate(9210.5 -403.5)" fill="none" stroke="#232c46" stroke-width="0.5"/>
            </g>
            <g transform="translate(-8977.5 415)">
              <line id="Line_5-24" data-name="Line 5" x2="233" transform="translate(9210.5 -403.5)" fill="none" stroke="#232c46" stroke-width="0.5"/>
            </g>
            <g transform="translate(-9210.5 416)">
              <line id="Line_5-25" data-name="Line 5" x2="233" transform="translate(9210.5 -403.5)" fill="none" stroke="#232c46" stroke-width="0.5"/>
            </g>
            <g transform="translate(-8977.5 416)">
              <line id="Line_5-26" data-name="Line 5" x2="233" transform="translate(9210.5 -403.5)" fill="none" stroke="#232c46" stroke-width="0.5"/>
            </g>
            <g transform="translate(-9210.5 417)">
              <line id="Line_5-27" data-name="Line 5" x2="233" transform="translate(9210.5 -403.5)" fill="none" stroke="#232c46" stroke-width="0.5"/>
            </g>
            <g transform="translate(-8977.5 417)">
              <line id="Line_5-28" data-name="Line 5" x2="233" transform="translate(9210.5 -403.5)" fill="none" stroke="#232c46" stroke-width="0.5"/>
            </g>
            <g transform="translate(-9210.5 418)">
              <line id="Line_5-29" data-name="Line 5" x2="233" transform="translate(9210.5 -403.5)" fill="none" stroke="#232c46" stroke-width="0.5"/>
            </g>
            <g transform="translate(-8977.5 418)">
              <line id="Line_5-30" data-name="Line 5" x2="233" transform="translate(9210.5 -403.5)" fill="none" stroke="#232c46" stroke-width="0.5"/>
            </g>
            <g transform="translate(-9210.5 419)">
              <line id="Line_5-31" data-name="Line 5" x2="233" transform="translate(9210.5 -403.5)" fill="none" stroke="#232c46" stroke-width="0.5"/>
            </g>
            <g transform="translate(-8977.5 419)">
              <line id="Line_5-32" data-name="Line 5" x2="233" transform="translate(9210.5 -403.5)" fill="none" stroke="#232c46" stroke-width="0.5"/>
            </g>
            <g transform="translate(-9210.5 420)">
              <line id="Line_5-33" data-name="Line 5" x2="233" transform="translate(9210.5 -403.5)" fill="none" stroke="#232c46" stroke-width="0.5"/>
            </g>
            <g transform="translate(-8977.5 420)">
              <line id="Line_5-34" data-name="Line 5" x2="233" transform="translate(9210.5 -403.5)" fill="none" stroke="#232c46" stroke-width="0.5"/>
            </g>
            <g transform="translate(-9210.5 421)">
              <line id="Line_5-35" data-name="Line 5" x2="233" transform="translate(9210.5 -403.5)" fill="none" stroke="#232c46" stroke-width="0.5"/>
            </g>
            <g transform="translate(-8977.5 421)">
              <line id="Line_5-36" data-name="Line 5" x2="233" transform="translate(9210.5 -403.5)" fill="none" stroke="#232c46" stroke-width="0.5"/>
            </g>
            <g transform="translate(-9210.5 422)">
              <line id="Line_5-37" data-name="Line 5" x2="233" transform="translate(9210.5 -403.5)" fill="none" stroke="#232c46" stroke-width="0.5"/>
            </g>
            <g transform="translate(-8977.5 422)">
              <line id="Line_5-38" data-name="Line 5" x2="233" transform="translate(9210.5 -403.5)" fill="none" stroke="#232c46" stroke-width="0.5"/>
            </g>
            <g transform="translate(-9210.5 423)">
              <line id="Line_5-39" data-name="Line 5" x2="233" transform="translate(9210.5 -403.5)" fill="none" stroke="#232c46" stroke-width="0.5"/>
            </g>
            <g transform="translate(-8977.5 423)">
              <line id="Line_5-40" data-name="Line 5" x2="233" transform="translate(9210.5 -403.5)" fill="none" stroke="#232c46" stroke-width="0.5"/>
            </g>
            <g transform="translate(-9210.5 424)">
              <line id="Line_5-41" data-name="Line 5" x2="233" transform="translate(9210.5 -403.5)" fill="none" stroke="#232c46" stroke-width="0.5"/>
            </g>
            <g transform="translate(-8977.5 424)">
              <line id="Line_5-42" data-name="Line 5" x2="233" transform="translate(9210.5 -403.5)" fill="none" stroke="#232c46" stroke-width="0.5"/>
            </g>
            <g transform="translate(-9210.5 425)">
              <line id="Line_5-43" data-name="Line 5" x2="233" transform="translate(9210.5 -403.5)" fill="none" stroke="#232c46" stroke-width="0.5"/>
            </g>
            <g transform="translate(-8977.5 425)">
              <line id="Line_5-44" data-name="Line 5" x2="233" transform="translate(9210.5 -403.5)" fill="none" stroke="#232c46" stroke-width="0.5"/>
            </g>
            <g transform="translate(-9210.5 426)">
              <line id="Line_5-45" data-name="Line 5" x2="233" transform="translate(9210.5 -403.5)" fill="none" stroke="#232c46" stroke-width="0.5"/>
            </g>
            <g transform="translate(-8977.5 426)">
              <line id="Line_5-46" data-name="Line 5" x2="233" transform="translate(9210.5 -403.5)" fill="none" stroke="#232c46" stroke-width="0.5"/>
            </g>
            <g transform="translate(-9210.5 427)">
              <line id="Line_5-47" data-name="Line 5" x2="233" transform="translate(9210.5 -403.5)" fill="none" stroke="#232c46" stroke-width="0.5"/>
            </g>
            <g transform="translate(-8977.5 427)">
              <line id="Line_5-48" data-name="Line 5" x2="233" transform="translate(9210.5 -403.5)" fill="none" stroke="#232c46" stroke-width="0.5"/>
            </g>
            <g transform="translate(-9210.5 428)">
              <line id="Line_5-49" data-name="Line 5" x2="233" transform="translate(9210.5 -403.5)" fill="none" stroke="#232c46" stroke-width="0.5"/>
            </g>
            <g transform="translate(-8977.5 428)">
              <line id="Line_5-50" data-name="Line 5" x2="233" transform="translate(9210.5 -403.5)" fill="none" stroke="#232c46" stroke-width="0.5"/>
            </g>
            <g transform="translate(-9210.5 429)">
              <line id="Line_5-51" data-name="Line 5" x2="233" transform="translate(9210.5 -403.5)" fill="none" stroke="#232c46" stroke-width="0.5"/>
            </g>
            <g transform="translate(-8977.5 429)">
              <line id="Line_5-52" data-name="Line 5" x2="233" transform="translate(9210.5 -403.5)" fill="none" stroke="#232c46" stroke-width="0.5"/>
            </g>
            <g transform="translate(-9210.5 430)">
              <line id="Line_5-53" data-name="Line 5" x2="233" transform="translate(9210.5 -403.5)" fill="none" stroke="#232c46" stroke-width="0.5"/>
            </g>
            <g transform="translate(-8977.5 430)">
              <line id="Line_5-54" data-name="Line 5" x2="233" transform="translate(9210.5 -403.5)" fill="none" stroke="#232c46" stroke-width="0.5"/>
            </g>
            <g transform="translate(-9210.5 431)">
              <line id="Line_5-55" data-name="Line 5" x2="233" transform="translate(9210.5 -403.5)" fill="none" stroke="#232c46" stroke-width="0.5"/>
            </g>
            <g transform="translate(-8977.5 431)">
              <line id="Line_5-56" data-name="Line 5" x2="233" transform="translate(9210.5 -403.5)" fill="none" stroke="#232c46" stroke-width="0.5"/>
            </g>
            <g transform="translate(-9210.5 432)">
              <line id="Line_5-57" data-name="Line 5" x2="233" transform="translate(9210.5 -403.5)" fill="none" stroke="#232c46" stroke-width="0.5"/>
            </g>
            <g transform="translate(-8977.5 432)">
              <line id="Line_5-58" data-name="Line 5" x2="233" transform="translate(9210.5 -403.5)" fill="none" stroke="#232c46" stroke-width="0.5"/>
            </g>
            <g transform="translate(-9210.5 433)">
              <line id="Line_5-59" data-name="Line 5" x2="233" transform="translate(9210.5 -403.5)" fill="none" stroke="#232c46" stroke-width="0.5"/>
            </g>
            <g transform="translate(-8977.5 433)">
              <line id="Line_5-60" data-name="Line 5" x2="233" transform="translate(9210.5 -403.5)" fill="none" stroke="#232c46" stroke-width="0.5"/>
            </g>
            <g transform="translate(-9210.5 434)">
              <line id="Line_5-61" data-name="Line 5" x2="233" transform="translate(9210.5 -403.5)" fill="none" stroke="#232c46" stroke-width="0.5"/>
            </g>
            <g transform="translate(-8977.5 434)">
              <line id="Line_5-62" data-name="Line 5" x2="233" transform="translate(9210.5 -403.5)" fill="none" stroke="#232c46" stroke-width="0.5"/>
            </g>
            <g transform="translate(-9210.5 435)">
              <line id="Line_5-63" data-name="Line 5" x2="233" transform="translate(9210.5 -403.5)" fill="none" stroke="#232c46" stroke-width="0.5"/>
            </g>
            <g transform="translate(-8977.5 435)">
              <line id="Line_5-64" data-name="Line 5" x2="233" transform="translate(9210.5 -403.5)" fill="none" stroke="#232c46" stroke-width="0.5"/>
            </g>
            <g transform="translate(-9210.5 436)">
              <line id="Line_5-65" data-name="Line 5" x2="233" transform="translate(9210.5 -403.5)" fill="none" stroke="#232c46" stroke-width="0.5"/>
            </g>
            <g transform="translate(-8977.5 436)">
              <line id="Line_5-66" data-name="Line 5" x2="233" transform="translate(9210.5 -403.5)" fill="none" stroke="#232c46" stroke-width="0.5"/>
            </g>
            <g transform="translate(-9210.5 437)">
              <line id="Line_5-67" data-name="Line 5" x2="233" transform="translate(9210.5 -403.5)" fill="none" stroke="#232c46" stroke-width="0.5"/>
            </g>
            <g transform="translate(-8977.5 437)">
              <line id="Line_5-68" data-name="Line 5" x2="233" transform="translate(9210.5 -403.5)" fill="none" stroke="#232c46" stroke-width="0.5"/>
            </g>
            <g transform="translate(-9210.5 438)">
              <line id="Line_5-69" data-name="Line 5" x2="233" transform="translate(9210.5 -403.5)" fill="none" stroke="#232c46" stroke-width="0.5"/>
            </g>
            <g transform="translate(-8977.5 438)">
              <line id="Line_5-70" data-name="Line 5" x2="233" transform="translate(9210.5 -403.5)" fill="none" stroke="#232c46" stroke-width="0.5"/>
            </g>
            <g transform="translate(-9210.5 439)">
              <line id="Line_5-71" data-name="Line 5" x2="233" transform="translate(9210.5 -403.5)" fill="none" stroke="#232c46" stroke-width="0.5"/>
            </g>
            <g transform="translate(-8977.5 439)">
              <line id="Line_5-72" data-name="Line 5" x2="233" transform="translate(9210.5 -403.5)" fill="none" stroke="#232c46" stroke-width="0.5"/>
            </g>
            <g transform="translate(-9210.5 440)">
              <line id="Line_5-73" data-name="Line 5" x2="233" transform="translate(9210.5 -403.5)" fill="none" stroke="#232c46" stroke-width="0.5"/>
            </g>
            <g transform="translate(-8977.5 440)">
              <line id="Line_5-74" data-name="Line 5" x2="233" transform="translate(9210.5 -403.5)" fill="none" stroke="#232c46" stroke-width="0.5"/>
            </g>
            <g transform="translate(-9210.5 441)">
              <line id="Line_5-75" data-name="Line 5" x2="233" transform="translate(9210.5 -403.5)" fill="none" stroke="#232c46" stroke-width="0.5"/>
            </g>
            <g transform="translate(-8977.5 441)">
              <line id="Line_5-76" data-name="Line 5" x2="233" transform="translate(9210.5 -403.5)" fill="none" stroke="#232c46" stroke-width="0.5"/>
            </g>
            <g transform="translate(-9210.5 442)">
              <line id="Line_5-77" data-name="Line 5" x2="233" transform="translate(9210.5 -403.5)" fill="none" stroke="#232c46" stroke-width="0.5"/>
            </g>
            <g transform="translate(-8977.5 442)">
              <line id="Line_5-78" data-name="Line 5" x2="233" transform="translate(9210.5 -403.5)" fill="none" stroke="#232c46" stroke-width="0.5"/>
            </g>
            <g transform="translate(-9210.5 443)">
              <line id="Line_5-79" data-name="Line 5" x2="233" transform="translate(9210.5 -403.5)" fill="none" stroke="#232c46" stroke-width="0.5"/>
            </g>
            <g transform="translate(-8977.5 443)">
              <line id="Line_5-80" data-name="Line 5" x2="233" transform="translate(9210.5 -403.5)" fill="none" stroke="#232c46" stroke-width="0.5"/>
            </g>
            <g transform="translate(-9210.5 444)">
              <line id="Line_5-81" data-name="Line 5" x2="233" transform="translate(9210.5 -403.5)" fill="none" stroke="#232c46" stroke-width="0.5"/>
            </g>
            <g transform="translate(-8977.5 444)">
              <line id="Line_5-82" data-name="Line 5" x2="233" transform="translate(9210.5 -403.5)" fill="none" stroke="#232c46" stroke-width="0.5"/>
            </g>
            <g transform="translate(-9210.5 445)">
              <line id="Line_5-83" data-name="Line 5" x2="233" transform="translate(9210.5 -403.5)" fill="none" stroke="#232c46" stroke-width="0.5"/>
            </g>
            <g transform="translate(-8977.5 445)">
              <line id="Line_5-84" data-name="Line 5" x2="233" transform="translate(9210.5 -403.5)" fill="none" stroke="#232c46" stroke-width="0.5"/>
            </g>
            <g transform="translate(-9210.5 446)">
              <line id="Line_5-85" data-name="Line 5" x2="233" transform="translate(9210.5 -403.5)" fill="none" stroke="#232c46" stroke-width="0.5"/>
            </g>
            <g transform="translate(-8977.5 446)">
              <line id="Line_5-86" data-name="Line 5" x2="233" transform="translate(9210.5 -403.5)" fill="none" stroke="#232c46" stroke-width="0.5"/>
            </g>
            <g transform="translate(-9210.5 447)">
              <line id="Line_5-87" data-name="Line 5" x2="233" transform="translate(9210.5 -403.5)" fill="none" stroke="#232c46" stroke-width="0.5"/>
            </g>
            <g transform="translate(-8977.5 447)">
              <line id="Line_5-88" data-name="Line 5" x2="233" transform="translate(9210.5 -403.5)" fill="none" stroke="#232c46" stroke-width="0.5"/>
            </g>
            <g transform="translate(-9210.5 448)">
              <line id="Line_5-89" data-name="Line 5" x2="233" transform="translate(9210.5 -403.5)" fill="none" stroke="#232c46" stroke-width="0.5"/>
            </g>
            <g transform="translate(-8977.5 448)">
              <line id="Line_5-90" data-name="Line 5" x2="233" transform="translate(9210.5 -403.5)" fill="none" stroke="#232c46" stroke-width="0.5"/>
            </g>
            <g transform="translate(-9210.5 449)">
              <line id="Line_5-91" data-name="Line 5" x2="233" transform="translate(9210.5 -403.5)" fill="none" stroke="#232c46" stroke-width="0.5"/>
            </g>
            <g transform="translate(-8977.5 449)">
              <line id="Line_5-92" data-name="Line 5" x2="233" transform="translate(9210.5 -403.5)" fill="none" stroke="#232c46" stroke-width="0.5"/>
            </g>
            <g transform="translate(-9210.5 450)">
              <line id="Line_5-93" data-name="Line 5" x2="233" transform="translate(9210.5 -403.5)" fill="none" stroke="#232c46" stroke-width="0.5"/>
            </g>
            <g transform="translate(-8977.5 450)">
              <line id="Line_5-94" data-name="Line 5" x2="233" transform="translate(9210.5 -403.5)" fill="none" stroke="#232c46" stroke-width="0.5"/>
            </g>
            <g transform="translate(-9210.5 451)">
              <line id="Line_5-95" data-name="Line 5" x2="233" transform="translate(9210.5 -403.5)" fill="none" stroke="#232c46" stroke-width="0.5"/>
            </g>
            <g transform="translate(-8977.5 451)">
              <line id="Line_5-96" data-name="Line 5" x2="233" transform="translate(9210.5 -403.5)" fill="none" stroke="#232c46" stroke-width="0.5"/>
            </g>
            <g transform="translate(-9210.5 452)">
              <line id="Line_5-97" data-name="Line 5" x2="233" transform="translate(9210.5 -403.5)" fill="none" stroke="#232c46" stroke-width="0.5"/>
            </g>
            <g transform="translate(-8977.5 452)">
              <line id="Line_5-98" data-name="Line 5" x2="233" transform="translate(9210.5 -403.5)" fill="none" stroke="#232c46" stroke-width="0.5"/>
            </g>
            <g transform="translate(-9210.5 453)">
              <line id="Line_5-99" data-name="Line 5" x2="233" transform="translate(9210.5 -403.5)" fill="none" stroke="#232c46" stroke-width="0.5"/>
            </g>
            <g transform="translate(-8977.5 453)">
              <line id="Line_5-100" data-name="Line 5" x2="233" transform="translate(9210.5 -403.5)" fill="none" stroke="#232c46" stroke-width="0.5"/>
            </g>
            <g transform="translate(-9210.5 454)">
              <line id="Line_5-101" data-name="Line 5" x2="233" transform="translate(9210.5 -403.5)" fill="none" stroke="#232c46" stroke-width="0.5"/>
            </g>
            <g transform="translate(-8977.5 454)">
              <line id="Line_5-102" data-name="Line 5" x2="233" transform="translate(9210.5 -403.5)" fill="none" stroke="#232c46" stroke-width="0.5"/>
            </g>
            <g transform="translate(-9210.5 455)">
              <line id="Line_5-103" data-name="Line 5" x2="233" transform="translate(9210.5 -403.5)" fill="none" stroke="#232c46" stroke-width="0.5"/>
            </g>
            <g transform="translate(-8977.5 455)">
              <line id="Line_5-104" data-name="Line 5" x2="233" transform="translate(9210.5 -403.5)" fill="none" stroke="#232c46" stroke-width="0.5"/>
            </g>
            <g transform="translate(-9210.5 456)">
              <line id="Line_5-105" data-name="Line 5" x2="233" transform="translate(9210.5 -403.5)" fill="none" stroke="#232c46" stroke-width="0.5"/>
            </g>
            <g transform="translate(-8977.5 456)">
              <line id="Line_5-106" data-name="Line 5" x2="233" transform="translate(9210.5 -403.5)" fill="none" stroke="#232c46" stroke-width="0.5"/>
            </g>
            <g transform="translate(-9210.5 457)">
              <line id="Line_5-107" data-name="Line 5" x2="233" transform="translate(9210.5 -403.5)" fill="none" stroke="#232c46" stroke-width="0.5"/>
            </g>
            <g transform="translate(-8977.5 457)">
              <line id="Line_5-108" data-name="Line 5" x2="233" transform="translate(9210.5 -403.5)" fill="none" stroke="#232c46" stroke-width="0.5"/>
            </g>
            <g transform="translate(-9210.5 458)">
              <line id="Line_5-109" data-name="Line 5" x2="233" transform="translate(9210.5 -403.5)" fill="none" stroke="#232c46" stroke-width="0.5"/>
            </g>
            <g transform="translate(-8977.5 458)">
              <line id="Line_5-110" data-name="Line 5" x2="233" transform="translate(9210.5 -403.5)" fill="none" stroke="#232c46" stroke-width="0.5"/>
            </g>
            <g transform="translate(-9210.5 459)">
              <line id="Line_5-111" data-name="Line 5" x2="233" transform="translate(9210.5 -403.5)" fill="none" stroke="#232c46" stroke-width="0.5"/>
            </g>
            <g transform="translate(-8977.5 459)">
              <line id="Line_5-112" data-name="Line 5" x2="233" transform="translate(9210.5 -403.5)" fill="none" stroke="#232c46" stroke-width="0.5"/>
            </g>
            <g transform="translate(-9210.5 460)">
              <line id="Line_5-113" data-name="Line 5" x2="233" transform="translate(9210.5 -403.5)" fill="none" stroke="#232c46" stroke-width="0.5"/>
            </g>
            <g transform="translate(-8977.5 460)">
              <line id="Line_5-114" data-name="Line 5" x2="233" transform="translate(9210.5 -403.5)" fill="none" stroke="#232c46" stroke-width="0.5"/>
            </g>
            <g transform="translate(-9210.5 461)">
              <line id="Line_5-115" data-name="Line 5" x2="233" transform="translate(9210.5 -403.5)" fill="none" stroke="#232c46" stroke-width="0.5"/>
            </g>
            <g transform="translate(-8977.5 461)">
              <line id="Line_5-116" data-name="Line 5" x2="233" transform="translate(9210.5 -403.5)" fill="none" stroke="#232c46" stroke-width="0.5"/>
            </g>
            <g transform="translate(-9210.5 462)">
              <line id="Line_5-117" data-name="Line 5" x2="233" transform="translate(9210.5 -403.5)" fill="none" stroke="#232c46" stroke-width="0.5"/>
            </g>
            <g transform="translate(-8977.5 462)">
              <line id="Line_5-118" data-name="Line 5" x2="233" transform="translate(9210.5 -403.5)" fill="none" stroke="#232c46" stroke-width="0.5"/>
            </g>
            <g transform="translate(-9210.5 463)">
              <line id="Line_5-119" data-name="Line 5" x2="233" transform="translate(9210.5 -403.5)" fill="none" stroke="#232c46" stroke-width="0.5"/>
            </g>
            <g transform="translate(-8977.5 463)">
              <line id="Line_5-120" data-name="Line 5" x2="233" transform="translate(9210.5 -403.5)" fill="none" stroke="#232c46" stroke-width="0.5"/>
            </g>
            <g transform="translate(-9210.5 464)">
              <line id="Line_5-121" data-name="Line 5" x2="233" transform="translate(9210.5 -403.5)" fill="none" stroke="#232c46" stroke-width="0.5"/>
            </g>
            <g transform="translate(-8977.5 464)">
              <line id="Line_5-122" data-name="Line 5" x2="233" transform="translate(9210.5 -403.5)" fill="none" stroke="#232c46" stroke-width="0.5"/>
            </g>
          </g>
        </g>
        <g id="Ellipse_15" data-name="Ellipse 15" transform="translate(-0.115 -0.091)" fill="#fff" stroke="#232c46" stroke-width="1">
          <circle cx="22.5" cy="22.5" r="22.5" stroke="none"/>
          <circle cx="22.5" cy="22.5" r="22" fill="none"/>
        </g>
      </g>
    </g>
    <g id="Group_88" data-name="Group 88" transform="translate(116.727 39.164)">
      <g id="Mask_Group_9" data-name="Mask Group 9" transform="translate(3.127 1.114)" opacity="0.738" clip-path="url(#clip-path-3)">
        <g id="Repeat_Grid_4" data-name="Repeat Grid 4" transform="translate(-24.95 -10.946)" clip-path="url(#clip-path-4)">
          <g transform="translate(-9210.5 404)">
            <line id="Line_5-123" data-name="Line 5" x2="233" transform="translate(9210.5 -403.5)" fill="none" stroke="#232c46" stroke-width="0.5"/>
          </g>
          <g transform="translate(-9210.5 405)">
            <line id="Line_5-124" data-name="Line 5" x2="233" transform="translate(9210.5 -403.5)" fill="none" stroke="#232c46" stroke-width="0.5"/>
          </g>
          <g transform="translate(-9210.5 406)">
            <line id="Line_5-125" data-name="Line 5" x2="233" transform="translate(9210.5 -403.5)" fill="none" stroke="#232c46" stroke-width="0.5"/>
          </g>
          <g transform="translate(-9210.5 407)">
            <line id="Line_5-126" data-name="Line 5" x2="233" transform="translate(9210.5 -403.5)" fill="none" stroke="#232c46" stroke-width="0.5"/>
          </g>
          <g transform="translate(-9210.5 408)">
            <line id="Line_5-127" data-name="Line 5" x2="233" transform="translate(9210.5 -403.5)" fill="none" stroke="#232c46" stroke-width="0.5"/>
          </g>
          <g transform="translate(-9210.5 409)">
            <line id="Line_5-128" data-name="Line 5" x2="233" transform="translate(9210.5 -403.5)" fill="none" stroke="#232c46" stroke-width="0.5"/>
          </g>
          <g transform="translate(-9210.5 410)">
            <line id="Line_5-129" data-name="Line 5" x2="233" transform="translate(9210.5 -403.5)" fill="none" stroke="#232c46" stroke-width="0.5"/>
          </g>
          <g transform="translate(-9210.5 411)">
            <line id="Line_5-130" data-name="Line 5" x2="233" transform="translate(9210.5 -403.5)" fill="none" stroke="#232c46" stroke-width="0.5"/>
          </g>
          <g transform="translate(-9210.5 412)">
            <line id="Line_5-131" data-name="Line 5" x2="233" transform="translate(9210.5 -403.5)" fill="none" stroke="#232c46" stroke-width="0.5"/>
          </g>
          <g transform="translate(-9210.5 413)">
            <line id="Line_5-132" data-name="Line 5" x2="233" transform="translate(9210.5 -403.5)" fill="none" stroke="#232c46" stroke-width="0.5"/>
          </g>
          <g transform="translate(-9210.5 414)">
            <line id="Line_5-133" data-name="Line 5" x2="233" transform="translate(9210.5 -403.5)" fill="none" stroke="#232c46" stroke-width="0.5"/>
          </g>
          <g transform="translate(-9210.5 415)">
            <line id="Line_5-134" data-name="Line 5" x2="233" transform="translate(9210.5 -403.5)" fill="none" stroke="#232c46" stroke-width="0.5"/>
          </g>
          <g transform="translate(-9210.5 416)">
            <line id="Line_5-135" data-name="Line 5" x2="233" transform="translate(9210.5 -403.5)" fill="none" stroke="#232c46" stroke-width="0.5"/>
          </g>
          <g transform="translate(-9210.5 417)">
            <line id="Line_5-136" data-name="Line 5" x2="233" transform="translate(9210.5 -403.5)" fill="none" stroke="#232c46" stroke-width="0.5"/>
          </g>
          <g transform="translate(-9210.5 418)">
            <line id="Line_5-137" data-name="Line 5" x2="233" transform="translate(9210.5 -403.5)" fill="none" stroke="#232c46" stroke-width="0.5"/>
          </g>
          <g transform="translate(-9210.5 419)">
            <line id="Line_5-138" data-name="Line 5" x2="233" transform="translate(9210.5 -403.5)" fill="none" stroke="#232c46" stroke-width="0.5"/>
          </g>
          <g transform="translate(-9210.5 420)">
            <line id="Line_5-139" data-name="Line 5" x2="233" transform="translate(9210.5 -403.5)" fill="none" stroke="#232c46" stroke-width="0.5"/>
          </g>
          <g transform="translate(-9210.5 421)">
            <line id="Line_5-140" data-name="Line 5" x2="233" transform="translate(9210.5 -403.5)" fill="none" stroke="#232c46" stroke-width="0.5"/>
          </g>
          <g transform="translate(-9210.5 422)">
            <line id="Line_5-141" data-name="Line 5" x2="233" transform="translate(9210.5 -403.5)" fill="none" stroke="#232c46" stroke-width="0.5"/>
          </g>
          <g transform="translate(-9210.5 423)">
            <line id="Line_5-142" data-name="Line 5" x2="233" transform="translate(9210.5 -403.5)" fill="none" stroke="#232c46" stroke-width="0.5"/>
          </g>
          <g transform="translate(-9210.5 424)">
            <line id="Line_5-143" data-name="Line 5" x2="233" transform="translate(9210.5 -403.5)" fill="none" stroke="#232c46" stroke-width="0.5"/>
          </g>
          <g transform="translate(-9210.5 425)">
            <line id="Line_5-144" data-name="Line 5" x2="233" transform="translate(9210.5 -403.5)" fill="none" stroke="#232c46" stroke-width="0.5"/>
          </g>
          <g transform="translate(-9210.5 426)">
            <line id="Line_5-145" data-name="Line 5" x2="233" transform="translate(9210.5 -403.5)" fill="none" stroke="#232c46" stroke-width="0.5"/>
          </g>
          <g transform="translate(-9210.5 427)">
            <line id="Line_5-146" data-name="Line 5" x2="233" transform="translate(9210.5 -403.5)" fill="none" stroke="#232c46" stroke-width="0.5"/>
          </g>
          <g transform="translate(-9210.5 428)">
            <line id="Line_5-147" data-name="Line 5" x2="233" transform="translate(9210.5 -403.5)" fill="none" stroke="#232c46" stroke-width="0.5"/>
          </g>
          <g transform="translate(-9210.5 429)">
            <line id="Line_5-148" data-name="Line 5" x2="233" transform="translate(9210.5 -403.5)" fill="none" stroke="#232c46" stroke-width="0.5"/>
          </g>
          <g transform="translate(-9210.5 430)">
            <line id="Line_5-149" data-name="Line 5" x2="233" transform="translate(9210.5 -403.5)" fill="none" stroke="#232c46" stroke-width="0.5"/>
          </g>
          <g transform="translate(-9210.5 431)">
            <line id="Line_5-150" data-name="Line 5" x2="233" transform="translate(9210.5 -403.5)" fill="none" stroke="#232c46" stroke-width="0.5"/>
          </g>
          <g transform="translate(-9210.5 432)">
            <line id="Line_5-151" data-name="Line 5" x2="233" transform="translate(9210.5 -403.5)" fill="none" stroke="#232c46" stroke-width="0.5"/>
          </g>
          <g transform="translate(-9210.5 433)">
            <line id="Line_5-152" data-name="Line 5" x2="233" transform="translate(9210.5 -403.5)" fill="none" stroke="#232c46" stroke-width="0.5"/>
          </g>
          <g transform="translate(-9210.5 434)">
            <line id="Line_5-153" data-name="Line 5" x2="233" transform="translate(9210.5 -403.5)" fill="none" stroke="#232c46" stroke-width="0.5"/>
          </g>
          <g transform="translate(-9210.5 435)">
            <line id="Line_5-154" data-name="Line 5" x2="233" transform="translate(9210.5 -403.5)" fill="none" stroke="#232c46" stroke-width="0.5"/>
          </g>
          <g transform="translate(-9210.5 436)">
            <line id="Line_5-155" data-name="Line 5" x2="233" transform="translate(9210.5 -403.5)" fill="none" stroke="#232c46" stroke-width="0.5"/>
          </g>
          <g transform="translate(-9210.5 437)">
            <line id="Line_5-156" data-name="Line 5" x2="233" transform="translate(9210.5 -403.5)" fill="none" stroke="#232c46" stroke-width="0.5"/>
          </g>
          <g transform="translate(-9210.5 438)">
            <line id="Line_5-157" data-name="Line 5" x2="233" transform="translate(9210.5 -403.5)" fill="none" stroke="#232c46" stroke-width="0.5"/>
          </g>
          <g transform="translate(-9210.5 439)">
            <line id="Line_5-158" data-name="Line 5" x2="233" transform="translate(9210.5 -403.5)" fill="none" stroke="#232c46" stroke-width="0.5"/>
          </g>
          <g transform="translate(-9210.5 440)">
            <line id="Line_5-159" data-name="Line 5" x2="233" transform="translate(9210.5 -403.5)" fill="none" stroke="#232c46" stroke-width="0.5"/>
          </g>
          <g transform="translate(-9210.5 441)">
            <line id="Line_5-160" data-name="Line 5" x2="233" transform="translate(9210.5 -403.5)" fill="none" stroke="#232c46" stroke-width="0.5"/>
          </g>
          <g transform="translate(-9210.5 442)">
            <line id="Line_5-161" data-name="Line 5" x2="233" transform="translate(9210.5 -403.5)" fill="none" stroke="#232c46" stroke-width="0.5"/>
          </g>
          <g transform="translate(-9210.5 443)">
            <line id="Line_5-162" data-name="Line 5" x2="233" transform="translate(9210.5 -403.5)" fill="none" stroke="#232c46" stroke-width="0.5"/>
          </g>
          <g transform="translate(-9210.5 444)">
            <line id="Line_5-163" data-name="Line 5" x2="233" transform="translate(9210.5 -403.5)" fill="none" stroke="#232c46" stroke-width="0.5"/>
          </g>
          <g transform="translate(-9210.5 445)">
            <line id="Line_5-164" data-name="Line 5" x2="233" transform="translate(9210.5 -403.5)" fill="none" stroke="#232c46" stroke-width="0.5"/>
          </g>
          <g transform="translate(-9210.5 446)">
            <line id="Line_5-165" data-name="Line 5" x2="233" transform="translate(9210.5 -403.5)" fill="none" stroke="#232c46" stroke-width="0.5"/>
          </g>
          <g transform="translate(-9210.5 447)">
            <line id="Line_5-166" data-name="Line 5" x2="233" transform="translate(9210.5 -403.5)" fill="none" stroke="#232c46" stroke-width="0.5"/>
          </g>
          <g transform="translate(-9210.5 448)">
            <line id="Line_5-167" data-name="Line 5" x2="233" transform="translate(9210.5 -403.5)" fill="none" stroke="#232c46" stroke-width="0.5"/>
          </g>
          <g transform="translate(-9210.5 449)">
            <line id="Line_5-168" data-name="Line 5" x2="233" transform="translate(9210.5 -403.5)" fill="none" stroke="#232c46" stroke-width="0.5"/>
          </g>
          <g transform="translate(-9210.5 450)">
            <line id="Line_5-169" data-name="Line 5" x2="233" transform="translate(9210.5 -403.5)" fill="none" stroke="#232c46" stroke-width="0.5"/>
          </g>
          <g transform="translate(-9210.5 451)">
            <line id="Line_5-170" data-name="Line 5" x2="233" transform="translate(9210.5 -403.5)" fill="none" stroke="#232c46" stroke-width="0.5"/>
          </g>
          <g transform="translate(-9210.5 452)">
            <line id="Line_5-171" data-name="Line 5" x2="233" transform="translate(9210.5 -403.5)" fill="none" stroke="#232c46" stroke-width="0.5"/>
          </g>
          <g transform="translate(-9210.5 453)">
            <line id="Line_5-172" data-name="Line 5" x2="233" transform="translate(9210.5 -403.5)" fill="none" stroke="#232c46" stroke-width="0.5"/>
          </g>
        </g>
      </g>
      <path id="Path_70" data-name="Path 70" d="M17.744-5.882,8.829-16.933H8.761V-5.882H3.066v-24H8.761v9.763h.1l8.576-9.763h7.254L14.354-18.831,25.3-5.882Zm22.271,0-5.187-9.526H32.863v9.526H27.168v-24h9.153a15.9,15.9,0,0,1,3.373.356,8.768,8.768,0,0,1,2.949,1.2,6.294,6.294,0,0,1,2.085,2.237,6.987,6.987,0,0,1,.78,3.458,6.379,6.379,0,0,1-1.322,4.1,7.21,7.21,0,0,1-3.661,2.373L46.8-5.882Zm-.237-16.644a2.4,2.4,0,0,0-.356-1.373,2.439,2.439,0,0,0-.915-.814,3.976,3.976,0,0,0-1.254-.39,9.25,9.25,0,0,0-1.339-.1H32.829v5.593h2.746a9.271,9.271,0,0,0,1.458-.119,4.645,4.645,0,0,0,1.356-.424,2.588,2.588,0,0,0,1-.881A2.611,2.611,0,0,0,39.778-22.526ZM65.914-5.882,64.05-10.593H54.762L53-5.882H46.694l10.068-24h5.627l9.966,24ZM59.473-23.475l-3.051,8.237h6.034Zm34.611,8.542a10.329,10.329,0,0,1-.729,3.949A8.584,8.584,0,0,1,91.27-7.932,9.614,9.614,0,0,1,88-5.949a12.132,12.132,0,0,1-4.254.712,12.094,12.094,0,0,1-4.271-.712,9.278,9.278,0,0,1-3.22-1.983,8.61,8.61,0,0,1-2.034-3.051,10.546,10.546,0,0,1-.712-3.949V-29.882H79.27v14.475a6.7,6.7,0,0,0,.254,1.864,4.787,4.787,0,0,0,.78,1.576,3.657,3.657,0,0,0,1.39,1.1,4.865,4.865,0,0,0,2.085.407,4.865,4.865,0,0,0,2.085-.407,3.8,3.8,0,0,0,1.407-1.1,4.386,4.386,0,0,0,.78-1.576,7.144,7.144,0,0,0,.237-1.864V-29.882h5.8Zm17.356-8.712a5.233,5.233,0,0,0-1.949-1.508,5.5,5.5,0,0,0-2.322-.559,6.913,6.913,0,0,0-1.17.1,3.019,3.019,0,0,0-1.068.39,2.64,2.64,0,0,0-.8.746,1.986,1.986,0,0,0-.322,1.17,1.886,1.886,0,0,0,.254,1.017,2.263,2.263,0,0,0,.746.712,6.648,6.648,0,0,0,1.17.559q.678.254,1.525.525,1.22.407,2.542.9a9.509,9.509,0,0,1,2.407,1.305,6.851,6.851,0,0,1,1.8,2.017,5.809,5.809,0,0,1,.712,3A7.837,7.837,0,0,1,114.2-9.7,7.132,7.132,0,0,1,112.152-7.2,8.788,8.788,0,0,1,109.2-5.746a12.4,12.4,0,0,1-3.424.475,14.138,14.138,0,0,1-4.983-.9,10.558,10.558,0,0,1-4-2.559l3.8-3.864a7.015,7.015,0,0,0,2.322,1.814,6.3,6.3,0,0,0,2.864.729,5.765,5.765,0,0,0,1.254-.136,3.129,3.129,0,0,0,1.068-.441,2.206,2.206,0,0,0,.729-.814,2.561,2.561,0,0,0,.271-1.22,1.931,1.931,0,0,0-.339-1.153,3.312,3.312,0,0,0-.966-.864,7.781,7.781,0,0,0-1.559-.712q-.932-.322-2.119-.695a20.248,20.248,0,0,1-2.254-.881A7.545,7.545,0,0,1,99.9-18.272a6.044,6.044,0,0,1-1.39-1.932,6.55,6.55,0,0,1-.525-2.763A6.793,6.793,0,0,1,98.8-26.39a7.072,7.072,0,0,1,2.136-2.339,9.174,9.174,0,0,1,2.983-1.339,13.526,13.526,0,0,1,3.356-.424,12.46,12.46,0,0,1,4.153.746,10.692,10.692,0,0,1,3.712,2.2ZM118.8-5.882v-24h16.136v4.915H124.39v4.509h9.966v4.644H124.39v4.983h11.153v4.949Z" transform="translate(-3.066 30.492)" fill="#fff" stroke="#232c46" stroke-width="1"/>
    </g>
  </g>
</svg>
